<svg width="0" height="0" class="hidden">
  <symbol xmlns="http://www.w3.org/2000/svg" fill="none" viewBox="0 0 60 24" id="dark">
    <rect width="60" height="24" fill="url(#a)" rx="12"></rect>
    <path stroke="#fff" stroke-linecap="round" stroke-linejoin="round" d="M4.026 11.774c.242 3.347 3.175 6.07 6.685 6.22 2.476.103 4.691-1.014 6.02-2.775.55-.722.255-1.203-.664-1.04-.45.078-.913.11-1.396.09-3.282-.13-5.967-2.787-5.98-5.926a5.624 5.624 0 0 1 .503-2.372c.362-.805-.074-1.189-.913-.844-2.658 1.085-4.476 3.678-4.255 6.647Z"></path>
    <path fill="#fff" d="M41.648 5.648c3.522-3.521 9.22-3.532 12.728-.024 3.508 3.508 3.497 9.206-.024 12.728-3.522 3.521-9.22 3.532-12.728.024-3.508-3.508-3.497-9.206.024-12.728Z"></path>
    <path stroke="url(#b)" stroke-linecap="round" stroke-width="1.2" d="M53.176 6.574c2.88 3.077 2.869 8.077-.024 11.168"></path>
    <defs>
      <linearGradient id="a" x1="7.329" x2="17.73" y1="1.715" y2="34.081" gradientUnits="userSpaceOnUse">
        <stop stop-color="#FFBD26"></stop>
        <stop offset="1" stop-color="#F84119"></stop>
      </linearGradient>
      <linearGradient id="b" x1="53.418" x2="57.225" y1="7.372" y2="8.296" gradientUnits="userSpaceOnUse">
        <stop stop-color="#FFBD26"></stop>
        <stop offset="1" stop-color="#F84119"></stop>
      </linearGradient>
    </defs>
  </symbol>
  <symbol xmlns="http://www.w3.org/2000/svg" fill="none" viewBox="0 0 48 48" id="IconBtn-Dark">
    <circle cx="24" cy="24" r="24" fill="url(#a)"></circle>
    <path stroke="#fff" stroke-linecap="round" stroke-linejoin="round" stroke-width="1.3" d="M23.167 29.833a6.667 6.667 0 1 0 0-13.333 6.667 6.667 0 0 0 0 13.333ZM31.5 31.5l-3.625-3.625"></path>
    <defs>
      <linearGradient id="a" x1="5.863" x2="40.733" y1="3.43" y2="46.833" gradientUnits="userSpaceOnUse">
        <stop stop-color="#FFBD26"></stop>
        <stop offset="1" stop-color="#F84119"></stop>
      </linearGradient>
    </defs>
  </symbol>
  <symbol xmlns="http://www.w3.org/2000/svg" fill="none" viewBox="0 0 48 48" id="IconBtn-Hover">
    <circle cx="24" cy="24" r="23.5" stroke="url(#a)"></circle>
    <path stroke="#F87719" stroke-linecap="round" stroke-linejoin="round" stroke-width="1.3" d="M23.167 29.833a6.667 6.667 0 1 0 0-13.333 6.667 6.667 0 0 0 0 13.333ZM31.5 31.5l-3.625-3.625"></path>
    <defs>
      <linearGradient id="a" x1="5.863" x2="40.733" y1="3.43" y2="46.833" gradientUnits="userSpaceOnUse">
        <stop stop-color="#FFBD26"></stop>
        <stop offset="1" stop-color="#F84119"></stop>
      </linearGradient>
    </defs>
  </symbol>
  <symbol xmlns="http://www.w3.org/2000/svg" fill="none" viewBox="0 0 48 48" id="IconBtn-Light">
    <circle cx="24" cy="24" r="24" fill="url(#a)"></circle>
    <path stroke="#111" stroke-linecap="round" stroke-linejoin="round" stroke-width="1.3" d="M23.167 29.833a6.667 6.667 0 1 0 0-13.333 6.667 6.667 0 0 0 0 13.333ZM31.5 31.5l-3.625-3.625"></path>
    <defs>
      <linearGradient id="a" x1="5.863" x2="40.733" y1="3.43" y2="46.833" gradientUnits="userSpaceOnUse">
        <stop stop-color="#FFBD26"></stop>
        <stop offset="1" stop-color="#F84119"></stop>
      </linearGradient>
    </defs>
  </symbol>
  <symbol xmlns="http://www.w3.org/2000/svg" fill="none" viewBox="0 0 60 24" id="light">
    <rect width="60" height="24" fill="url(#a)" rx="12"></rect>
    <path fill="#fff" d="M18.352 5.648c-3.522-3.521-9.22-3.532-12.728-.024-3.508 3.508-3.497 9.206.024 12.728 3.522 3.521 9.22 3.532 12.728.024 3.508-3.508 3.497-9.206-.024-12.728Z"></path>
    <path stroke="url(#b)" stroke-linecap="round" stroke-width="1.2" d="M6.824 6.574c-2.88 3.077-2.869 8.077.024 11.168"></path>
    <path stroke="#fff" stroke-linecap="round" stroke-linejoin="round" d="M49 17a5 5 0 1 0 0-10 5 5 0 0 0 0 10Z"></path>
    <path stroke="#fff" stroke-linecap="round" stroke-linejoin="round" stroke-width="1.5" d="m53.907 7.093.091-.091m-9.996 9.996.091-.091M49 5.056V5m0 14v-.056M42.056 12H42m14 0h-.056M44.093 7.093l-.091-.091m9.996 9.996-.091-.091"></path>
    <defs>
      <linearGradient id="a" x1="7.329" x2="17.73" y1="1.715" y2="34.081" gradientUnits="userSpaceOnUse">
        <stop stop-color="#FFBD26"></stop>
        <stop offset="1" stop-color="#F84119"></stop>
      </linearGradient>
      <linearGradient id="b" x1="6.582" x2="2.775" y1="7.372" y2="8.296" gradientUnits="userSpaceOnUse">
        <stop stop-color="#FFBD26"></stop>
        <stop offset="1" stop-color="#F84119"></stop>
      </linearGradient>
    </defs>
  </symbol>
  <symbol fill="none" xmlns="http://www.w3.org/2000/svg" viewBox="0 0 18 18" id="star-half">
    <path d="M16.875 7.3125H10.8281L9 1.6875L7.17188 7.3125H1.125L6.04688 10.6875L4.14844 16.3125L9 12.7969L13.8516 16.3125L11.9531 10.6875L16.875 7.3125Z" stroke="url(#paint0_linear_148_6991)" stroke-linejoin="round"></path>
    <path d="M9 1.6875V12.7969L4.14844 16.3125L6.04688 10.6875L1.125 7.3125H7.17188L9 1.6875Z" fill="url(#paint1_linear_148_6991)"></path>
    <defs>
      <linearGradient id="paint0_linear_148_6991" x1="3.04877" y1="2.73251" x2="13.478" y2="16.7124" gradientUnits="userSpaceOnUse">
        <stop stop-color="#F84119"></stop>
        <stop offset="1" stop-color="#F89F19" stop-opacity="0.68"></stop>
      </linearGradient>
      <linearGradient id="paint1_linear_148_6991" x1="2.08688" y1="2.73251" x2="12.1506" y2="9.47748" gradientUnits="userSpaceOnUse">
        <stop stop-color="#F84119"></stop>
        <stop offset="1" stop-color="#F89F19" stop-opacity="0.68"></stop>
      </linearGradient>
    </defs>
  </symbol>
  <symbol fill="none" xmlns="http://www.w3.org/2000/svg" viewBox="0 0 18 18" id="star-outline">
    <path d="M16.875 7.3125H10.8281L9 1.6875L7.17188 7.3125H1.125L6.04688 10.6875L4.14844 16.3125L9 12.7969L13.8516 16.3125L11.9531 10.6875L16.875 7.3125Z" stroke="url(#paint0_linear_148_6994)" stroke-linejoin="round"></path>
    <defs>
      <linearGradient id="paint0_linear_148_6994" x1="3.04877" y1="2.73251" x2="13.478" y2="16.7124" gradientUnits="userSpaceOnUse">
        <stop stop-color="#F84119"></stop>
        <stop offset="1" stop-color="#F89F19" stop-opacity="0.68"></stop>
      </linearGradient>
    </defs>
  </symbol>
  <symbol fill="none" xmlns="http://www.w3.org/2000/svg" viewBox="0 0 18 18" id="star">
    <path d="M13.852 16.8746C13.7336 16.875 13.6181 16.8381 13.5219 16.7691L9.00048 13.4911L4.47903 16.7691C4.38243 16.8392 4.26606 16.8767 4.14673 16.8762C4.0274 16.8758 3.91129 16.8374 3.81521 16.7667C3.71912 16.6959 3.64803 16.5964 3.61221 16.4826C3.57639 16.3688 3.5777 16.2465 3.61594 16.1335L5.37938 10.9103L0.809069 7.77612C0.710073 7.70831 0.635356 7.61062 0.595836 7.49732C0.556316 7.38402 0.554063 7.26105 0.589407 7.14638C0.624751 7.0317 0.695839 6.93134 0.792285 6.85995C0.888732 6.78856 1.00548 6.74988 1.12548 6.74956H6.76384L8.4654 1.51304C8.50205 1.39998 8.57358 1.30144 8.6697 1.23156C8.76583 1.16167 8.88163 1.12402 9.00048 1.12402C9.11932 1.12402 9.23512 1.16167 9.33125 1.23156C9.42738 1.30144 9.4989 1.39998 9.53555 1.51304L11.2371 6.75132H16.8755C16.9956 6.75126 17.1126 6.78967 17.2094 6.86093C17.3061 6.93218 17.3775 7.03254 17.413 7.1473C17.4486 7.26206 17.4465 7.38519 17.407 7.49866C17.3675 7.61213 17.2928 7.70998 17.1936 7.77788L12.6216 10.9103L14.384 16.1321C14.4125 16.2166 14.4205 16.3067 14.4074 16.395C14.3942 16.4832 14.3603 16.5671 14.3083 16.6396C14.2563 16.7122 14.1879 16.7713 14.1085 16.8122C14.0292 16.853 13.9413 16.8744 13.852 16.8746Z" fill="url(#paint0_linear_148_6982)"></path>
    <defs>
      <linearGradient id="paint0_linear_148_6982" x1="2.62549" y1="2.24957" x2="13.8755" y2="17.2496" gradientUnits="userSpaceOnUse">
        <stop stop-color="#F84119"></stop>
        <stop offset="1" stop-color="#F89F19" stop-opacity="0.68"></stop>
      </linearGradient>
    </defs>
  </symbol>
</svg>