<svg width="18" height="18" viewBox="0 0 18 18" fill="none" xmlns="http://www.w3.org/2000/svg">
<path d="M2.64817 2.64817C6.16958 -0.873234 11.8681 -0.884089 15.3761 2.62393C18.8841 6.13195 18.8732 11.8304 15.3518 15.3518C11.8304 18.8732 6.13195 18.8841 2.62393 15.3761C-0.884088 11.8681 -0.873235 6.16958 2.64817 2.64817Z" fill="white"/>
<path d="M14.6147 3.16402C17.711 6.47301 17.6974 11.8314 14.5913 15.1513L14.4995 15.2314C14.2718 15.3929 13.9544 15.3778 13.7426 15.1796C13.501 14.9533 13.4882 14.5739 13.7143 14.332L13.9575 14.0585C16.3904 11.1817 16.3171 6.73986 13.7387 3.98433L14.1772 3.57418L14.6147 3.16402ZM13.767 3.1357C14.0089 2.90959 14.3883 2.9224 14.6147 3.16402L13.7387 3.98433C13.5123 3.74237 13.5251 3.36211 13.767 3.1357Z" fill="url(#paint0_linear_403_9)"/>
<defs>
<linearGradient id="paint0_linear_403_9" x1="13.9651" y1="3.85782" x2="19.5706" y2="5.76251" gradientUnits="userSpaceOnUse">
<stop stop-color="#FFBD26"/>
<stop offset="1" stop-color="#F84119"/>
</linearGradient>
</defs>
</svg>
