<svg width="15" height="15" viewBox="0 0 15 15" fill="none" xmlns="http://www.w3.org/2000/svg">
<path d="M5.09057 0.664972C5.54509 0.478378 6.12571 0.385319 6.52417 0.74798C6.94982 1.13551 6.85055 1.73111 6.65014 2.17669L6.64917 2.17767C6.34903 2.84207 6.18414 3.56965 6.19018 4.3388V4.34075C6.20237 7.19149 8.65483 9.65024 11.6902 9.77044L12.0222 9.77435C12.3503 9.77015 12.6683 9.7403 12.9792 9.68646L13.1804 9.65814C13.3791 9.63825 13.5705 9.64394 13.7458 9.68353C13.9823 9.73696 14.2223 9.86204 14.3728 10.1005C14.5241 10.3404 14.5323 10.6113 14.4744 10.8476C14.4174 11.0797 14.2919 11.3074 14.1287 11.5214L14.1277 11.5204C12.6999 13.4115 10.3294 14.6039 7.6892 14.4931C3.94521 14.3337 0.788939 11.43 0.527096 7.81146L0.511471 7.51165C0.412212 4.4318 2.34285 1.78765 5.09057 0.664972ZM5.81616 1.49993C5.74575 1.50203 5.63081 1.52297 5.47045 1.5888L5.46948 1.58978C3.06893 2.57019 1.42551 4.85696 1.51049 7.48236L1.52417 7.73724V7.73821C1.74612 10.8125 4.45627 13.3546 7.73217 13.4941H7.7312C10.0434 13.5911 12.1017 12.5471 13.3318 10.9169L13.3337 10.915C13.4206 10.8011 13.4626 10.7118 13.4851 10.6523C13.4163 10.6437 13.3078 10.6435 13.1531 10.6708L13.1521 10.6718C12.668 10.7558 12.1691 10.7904 11.6501 10.7695C8.12186 10.6295 5.20499 7.77204 5.19018 4.34564V4.34466C5.18326 3.42555 5.38098 2.55578 5.73803 1.76556C5.7934 1.6423 5.81015 1.55441 5.81616 1.49993Z" fill="white"/>
</svg>
